<?xml version="1.0" encoding="UTF-8" standalone="no"?>
<!DOCTYPE svg PUBLIC "-//W3C//DTD SVG 1.1//EN"
 "http://www.w3.org/Graphics/SVG/1.1/DTD/svg11.dtd">
<!-- Generated by graphviz version 2.40.1 (20161225.0304)
 -->
<!-- Title: %0 Pages: 1 -->
<svg width="746pt" height="550pt"
 viewBox="0.00 0.00 746.00 550.00" xmlns="http://www.w3.org/2000/svg" xmlns:xlink="http://www.w3.org/1999/xlink">
<g id="graph0" class="graph" transform="scale(1 1) rotate(0) translate(4 546)">
<title>%0</title>
<polygon fill="#ffffff" stroke="transparent" points="-4,4 -4,-546 742,-546 742,4 -4,4"/>
<text text-anchor="middle" x="369" y="-8.2" font-family="Helvetica,sans-Serif" font-size="14.00" fill="#000000">nodes=25</text>
<!-- 17707280 -->
<g id="node1" class="node">
<title>17707280</title>
<path fill="none" stroke="#000000" d="M436,-494.3C436,-494.3 466,-494.3 466,-494.3 472,-494.3 478,-500.3 478,-506.3 478,-506.3 478,-529.5 478,-529.5 478,-535.5 472,-541.5 466,-541.5 466,-541.5 436,-541.5 436,-541.5 430,-541.5 424,-535.5 424,-529.5 424,-529.5 424,-506.3 424,-506.3 424,-500.3 430,-494.3 436,-494.3"/>
<text text-anchor="middle" x="450.9165" y="-525.8" font-family="Helvetica,sans-Serif" font-size="13.00" fill="#000000">fibo(6)</text>
<polyline fill="none" stroke="#000000" points="424,-517.9 477.8329,-517.9 "/>
<text text-anchor="middle" x="450.9165" y="-502.2" font-family="Helvetica,sans-Serif" font-size="13.00" fill="#000000">ret: 8</text>
</g>
<!-- 13230056 -->
<g id="node2" class="node">
<title>13230056</title>
<path fill="none" stroke="#000000" d="M401,-400.5C401,-400.5 431,-400.5 431,-400.5 437,-400.5 443,-406.5 443,-412.5 443,-412.5 443,-435.7 443,-435.7 443,-441.7 437,-447.7 431,-447.7 431,-447.7 401,-447.7 401,-447.7 395,-447.7 389,-441.7 389,-435.7 389,-435.7 389,-412.5 389,-412.5 389,-406.5 395,-400.5 401,-400.5"/>
<text text-anchor="middle" x="415.9165" y="-432" font-family="Helvetica,sans-Serif" font-size="13.00" fill="#000000">fibo(5)</text>
<polyline fill="none" stroke="#000000" points="389,-424.1 442.8329,-424.1 "/>
<text text-anchor="middle" x="415.9165" y="-408.4" font-family="Helvetica,sans-Serif" font-size="13.00" fill="#000000">ret: 5</text>
</g>
<!-- 17707280&#45;&gt;13230056 -->
<g id="edge1" class="edge">
<title>17707280&#45;&gt;13230056</title>
<path fill="none" stroke="#080808" d="M439.9492,-494.0398C437.3598,-488.1299 434.6996,-481.7771 432.4392,-475.8 430.2409,-469.987 428.0837,-463.7359 426.0924,-457.6588"/>
<polygon fill="#080808" stroke="#080808" points="429.291,-456.1687 422.9199,-447.7035 422.6215,-458.2942 429.291,-456.1687"/>
<text text-anchor="middle" x="446.7804" y="-468.6" font-family="Helvetica,sans-Serif" font-size="8.00" fill="#999999">1 (⇑15)</text>
</g>
<!-- 24261144 -->
<g id="node17" class="node">
<title>24261144</title>
<path fill="none" stroke="#000000" d="M500,-400.5C500,-400.5 530,-400.5 530,-400.5 536,-400.5 542,-406.5 542,-412.5 542,-412.5 542,-435.7 542,-435.7 542,-441.7 536,-447.7 530,-447.7 530,-447.7 500,-447.7 500,-447.7 494,-447.7 488,-441.7 488,-435.7 488,-435.7 488,-412.5 488,-412.5 488,-406.5 494,-400.5 500,-400.5"/>
<text text-anchor="middle" x="514.9164" y="-432" font-family="Helvetica,sans-Serif" font-size="13.00" fill="#000000">fibo(4)</text>
<polyline fill="none" stroke="#000000" points="488,-424.1 541.8329,-424.1 "/>
<text text-anchor="middle" x="514.9164" y="-408.4" font-family="Helvetica,sans-Serif" font-size="13.00" fill="#000000">ret: 3</text>
</g>
<!-- 17707280&#45;&gt;24261144 -->
<g id="edge2" class="edge">
<title>17707280&#45;&gt;24261144</title>
<path fill="none" stroke="#808080" d="M467.1499,-494.2303C475.0327,-482.6771 484.6323,-468.6077 493.1584,-456.1116"/>
<polygon fill="#808080" stroke="#808080" points="496.1103,-457.9952 498.8553,-447.7621 490.328,-454.0499 496.1103,-457.9952"/>
<text text-anchor="middle" x="501.004" y="-468.6" font-family="Helvetica,sans-Serif" font-size="8.00" fill="#999999">16 (⇑24)</text>
</g>
<!-- 13230456 -->
<g id="node3" class="node">
<title>13230456</title>
<path fill="none" stroke="#000000" d="M240,-306.7C240,-306.7 270,-306.7 270,-306.7 276,-306.7 282,-312.7 282,-318.7 282,-318.7 282,-341.9 282,-341.9 282,-347.9 276,-353.9 270,-353.9 270,-353.9 240,-353.9 240,-353.9 234,-353.9 228,-347.9 228,-341.9 228,-341.9 228,-318.7 228,-318.7 228,-312.7 234,-306.7 240,-306.7"/>
<text text-anchor="middle" x="254.9165" y="-338.2" font-family="Helvetica,sans-Serif" font-size="13.00" fill="#000000">fibo(4)</text>
<polyline fill="none" stroke="#000000" points="228,-330.3 281.8329,-330.3 "/>
<text text-anchor="middle" x="254.9165" y="-314.6" font-family="Helvetica,sans-Serif" font-size="13.00" fill="#000000">ret: 3</text>
</g>
<!-- 13230056&#45;&gt;13230456 -->
<g id="edge3" class="edge">
<title>13230056&#45;&gt;13230456</title>
<path fill="none" stroke="#101010" d="M388.6885,-408.1881C361.7769,-392.5091 320.5103,-368.4669 290.9466,-351.2428"/>
<polygon fill="#101010" stroke="#101010" points="292.5787,-348.143 282.1763,-346.1331 289.0549,-354.1914 292.5787,-348.143"/>
<text text-anchor="middle" x="352.5568" y="-374.8" font-family="Helvetica,sans-Serif" font-size="8.00" fill="#999999">2 (⇑9)</text>
</g>
<!-- 15496192 -->
<g id="node12" class="node">
<title>15496192</title>
<path fill="none" stroke="#000000" d="M401,-306.7C401,-306.7 431,-306.7 431,-306.7 437,-306.7 443,-312.7 443,-318.7 443,-318.7 443,-341.9 443,-341.9 443,-347.9 437,-353.9 431,-353.9 431,-353.9 401,-353.9 401,-353.9 395,-353.9 389,-347.9 389,-341.9 389,-341.9 389,-318.7 389,-318.7 389,-312.7 395,-306.7 401,-306.7"/>
<text text-anchor="middle" x="415.9165" y="-338.2" font-family="Helvetica,sans-Serif" font-size="13.00" fill="#000000">fibo(3)</text>
<polyline fill="none" stroke="#000000" points="389,-330.3 442.8329,-330.3 "/>
<text text-anchor="middle" x="415.9165" y="-314.6" font-family="Helvetica,sans-Serif" font-size="13.00" fill="#000000">ret: 2</text>
</g>
<!-- 13230056&#45;&gt;15496192 -->
<g id="edge4" class="edge">
<title>13230056&#45;&gt;15496192</title>
<path fill="none" stroke="#585858" d="M416,-400.4303C416,-389.4325 416,-376.1547 416,-364.1244"/>
<polygon fill="#585858" stroke="#585858" points="419.5001,-363.9621 416,-353.9621 412.5001,-363.9622 419.5001,-363.9621"/>
<text text-anchor="middle" x="432.004" y="-374.8" font-family="Helvetica,sans-Serif" font-size="8.00" fill="#999999">11 (⇑14)</text>
</g>
<!-- 13232680 -->
<g id="node4" class="node">
<title>13232680</title>
<path fill="none" stroke="#000000" d="M120,-212.9C120,-212.9 150,-212.9 150,-212.9 156,-212.9 162,-218.9 162,-224.9 162,-224.9 162,-248.1 162,-248.1 162,-254.1 156,-260.1 150,-260.1 150,-260.1 120,-260.1 120,-260.1 114,-260.1 108,-254.1 108,-248.1 108,-248.1 108,-224.9 108,-224.9 108,-218.9 114,-212.9 120,-212.9"/>
<text text-anchor="middle" x="134.9165" y="-244.4" font-family="Helvetica,sans-Serif" font-size="13.00" fill="#000000">fibo(3)</text>
<polyline fill="none" stroke="#000000" points="108,-236.5 161.8329,-236.5 "/>
<text text-anchor="middle" x="134.9165" y="-220.8" font-family="Helvetica,sans-Serif" font-size="13.00" fill="#000000">ret: 2</text>
</g>
<!-- 13230456&#45;&gt;13232680 -->
<g id="edge5" class="edge">
<title>13230456&#45;&gt;13232680</title>
<path fill="none" stroke="#181818" d="M227.7701,-309.0153C210.7397,-295.7032 188.6281,-278.4193 170.2642,-264.0648"/>
<polygon fill="#181818" stroke="#181818" points="172.1562,-261.1014 162.1221,-257.7004 167.8453,-266.6165 172.1562,-261.1014"/>
<text text-anchor="middle" x="210.5568" y="-281" font-family="Helvetica,sans-Serif" font-size="8.00" fill="#999999">3 (⇑5)</text>
</g>
<!-- 16422056 -->
<g id="node9" class="node">
<title>16422056</title>
<path fill="none" stroke="#000000" d="M240,-212.9C240,-212.9 270,-212.9 270,-212.9 276,-212.9 282,-218.9 282,-224.9 282,-224.9 282,-248.1 282,-248.1 282,-254.1 276,-260.1 270,-260.1 270,-260.1 240,-260.1 240,-260.1 234,-260.1 228,-254.1 228,-248.1 228,-248.1 228,-224.9 228,-224.9 228,-218.9 234,-212.9 240,-212.9"/>
<text text-anchor="middle" x="254.9165" y="-244.4" font-family="Helvetica,sans-Serif" font-size="13.00" fill="#000000">fibo(2)</text>
<polyline fill="none" stroke="#000000" points="228,-236.5 281.8329,-236.5 "/>
<text text-anchor="middle" x="254.9165" y="-220.8" font-family="Helvetica,sans-Serif" font-size="13.00" fill="#000000">ret: 1</text>
</g>
<!-- 13230456&#45;&gt;16422056 -->
<g id="edge6" class="edge">
<title>13230456&#45;&gt;16422056</title>
<path fill="none" stroke="#404040" d="M255,-306.6303C255,-295.6325 255,-282.3547 255,-270.3244"/>
<polygon fill="#404040" stroke="#404040" points="258.5001,-270.1621 255,-260.1621 251.5001,-270.1622 258.5001,-270.1621"/>
<text text-anchor="middle" x="266.5568" y="-281" font-family="Helvetica,sans-Serif" font-size="8.00" fill="#999999">8 (⇑8)</text>
</g>
<!-- 13233248 -->
<g id="node5" class="node">
<title>13233248</title>
<path fill="none" stroke="#000000" d="M48,-119.1C48,-119.1 78,-119.1 78,-119.1 84,-119.1 90,-125.1 90,-131.1 90,-131.1 90,-154.3 90,-154.3 90,-160.3 84,-166.3 78,-166.3 78,-166.3 48,-166.3 48,-166.3 42,-166.3 36,-160.3 36,-154.3 36,-154.3 36,-131.1 36,-131.1 36,-125.1 42,-119.1 48,-119.1"/>
<text text-anchor="middle" x="62.9165" y="-150.6" font-family="Helvetica,sans-Serif" font-size="13.00" fill="#000000">fibo(2)</text>
<polyline fill="none" stroke="#000000" points="36,-142.7 89.8329,-142.7 "/>
<text text-anchor="middle" x="62.9165" y="-127" font-family="Helvetica,sans-Serif" font-size="13.00" fill="#000000">ret: 1</text>
</g>
<!-- 13232680&#45;&gt;13233248 -->
<g id="edge7" class="edge">
<title>13232680&#45;&gt;13233248</title>
<path fill="none" stroke="#202020" d="M116.8314,-212.8303C107.8779,-201.166 96.9558,-186.9369 87.2955,-174.3516"/>
<polygon fill="#202020" stroke="#202020" points="90.0282,-172.1635 81.1628,-166.3621 84.4754,-176.4258 90.0282,-172.1635"/>
<text text-anchor="middle" x="113.5568" y="-187.2" font-family="Helvetica,sans-Serif" font-size="8.00" fill="#999999">4 (⇑3)</text>
</g>
<!-- 16417544 -->
<g id="node8" class="node">
<title>16417544</title>
<path fill="none" stroke="#000000" d="M120,-119.1C120,-119.1 150,-119.1 150,-119.1 156,-119.1 162,-125.1 162,-131.1 162,-131.1 162,-154.3 162,-154.3 162,-160.3 156,-166.3 150,-166.3 150,-166.3 120,-166.3 120,-166.3 114,-166.3 108,-160.3 108,-154.3 108,-154.3 108,-131.1 108,-131.1 108,-125.1 114,-119.1 120,-119.1"/>
<text text-anchor="middle" x="134.9165" y="-150.6" font-family="Helvetica,sans-Serif" font-size="13.00" fill="#000000">fibo(1)</text>
<polyline fill="none" stroke="#000000" points="108,-142.7 161.8329,-142.7 "/>
<text text-anchor="middle" x="134.9165" y="-127" font-family="Helvetica,sans-Serif" font-size="13.00" fill="#000000">ret: 1</text>
</g>
<!-- 13232680&#45;&gt;16417544 -->
<g id="edge8" class="edge">
<title>13232680&#45;&gt;16417544</title>
<path fill="none" stroke="#383838" d="M135,-212.8303C135,-201.8325 135,-188.5547 135,-176.5244"/>
<polygon fill="#383838" stroke="#383838" points="138.5001,-176.3621 135,-166.3621 131.5001,-176.3622 138.5001,-176.3621"/>
<text text-anchor="middle" x="146.5568" y="-187.2" font-family="Helvetica,sans-Serif" font-size="8.00" fill="#999999">7 (⇑4)</text>
</g>
<!-- 19756680 -->
<g id="node6" class="node">
<title>19756680</title>
<path fill="none" stroke="#000000" d="M12,-25.3C12,-25.3 42,-25.3 42,-25.3 48,-25.3 54,-31.3 54,-37.3 54,-37.3 54,-60.5 54,-60.5 54,-66.5 48,-72.5 42,-72.5 42,-72.5 12,-72.5 12,-72.5 6,-72.5 0,-66.5 0,-60.5 0,-60.5 0,-37.3 0,-37.3 0,-31.3 6,-25.3 12,-25.3"/>
<text text-anchor="middle" x="26.9165" y="-56.8" font-family="Helvetica,sans-Serif" font-size="13.00" fill="#000000">fibo(1)</text>
<polyline fill="none" stroke="#000000" points="0,-48.9 53.8329,-48.9 "/>
<text text-anchor="middle" x="26.9165" y="-33.2" font-family="Helvetica,sans-Serif" font-size="13.00" fill="#000000">ret: 1</text>
</g>
<!-- 13233248&#45;&gt;19756680 -->
<g id="edge9" class="edge">
<title>13233248&#45;&gt;19756680</title>
<path fill="none" stroke="#282828" d="M53.9157,-119.0303C49.6095,-107.8103 44.3926,-94.2173 39.7024,-81.9969"/>
<polygon fill="#282828" stroke="#282828" points="42.9322,-80.644 36.0814,-72.5621 36.397,-83.1523 42.9322,-80.644"/>
<text text-anchor="middle" x="58.5568" y="-93.4" font-family="Helvetica,sans-Serif" font-size="8.00" fill="#999999">5 (⇑1)</text>
</g>
<!-- 19757080 -->
<g id="node7" class="node">
<title>19757080</title>
<path fill="none" stroke="#000000" d="M84,-25.3C84,-25.3 114,-25.3 114,-25.3 120,-25.3 126,-31.3 126,-37.3 126,-37.3 126,-60.5 126,-60.5 126,-66.5 120,-72.5 114,-72.5 114,-72.5 84,-72.5 84,-72.5 78,-72.5 72,-66.5 72,-60.5 72,-60.5 72,-37.3 72,-37.3 72,-31.3 78,-25.3 84,-25.3"/>
<text text-anchor="middle" x="98.9165" y="-56.8" font-family="Helvetica,sans-Serif" font-size="13.00" fill="#000000">fibo(0)</text>
<polyline fill="none" stroke="#000000" points="72,-48.9 125.8329,-48.9 "/>
<text text-anchor="middle" x="98.9165" y="-33.2" font-family="Helvetica,sans-Serif" font-size="13.00" fill="#000000">ret: 0</text>
</g>
<!-- 13233248&#45;&gt;19757080 -->
<g id="edge10" class="edge">
<title>13233248&#45;&gt;19757080</title>
<path fill="none" stroke="#303030" d="M72.0843,-119.0303C76.3905,-107.8103 81.6074,-94.2173 86.2976,-81.9969"/>
<polygon fill="#303030" stroke="#303030" points="89.603,-83.1523 89.9186,-72.5621 83.0678,-80.644 89.603,-83.1523"/>
<text text-anchor="middle" x="94.5568" y="-93.4" font-family="Helvetica,sans-Serif" font-size="8.00" fill="#999999">6 (⇑2)</text>
</g>
<!-- 16421160 -->
<g id="node10" class="node">
<title>16421160</title>
<path fill="none" stroke="#000000" d="M192,-119.1C192,-119.1 222,-119.1 222,-119.1 228,-119.1 234,-125.1 234,-131.1 234,-131.1 234,-154.3 234,-154.3 234,-160.3 228,-166.3 222,-166.3 222,-166.3 192,-166.3 192,-166.3 186,-166.3 180,-160.3 180,-154.3 180,-154.3 180,-131.1 180,-131.1 180,-125.1 186,-119.1 192,-119.1"/>
<text text-anchor="middle" x="206.9165" y="-150.6" font-family="Helvetica,sans-Serif" font-size="13.00" fill="#000000">fibo(1)</text>
<polyline fill="none" stroke="#000000" points="180,-142.7 233.8329,-142.7 "/>
<text text-anchor="middle" x="206.9165" y="-127" font-family="Helvetica,sans-Serif" font-size="13.00" fill="#000000">ret: 1</text>
</g>
<!-- 16422056&#45;&gt;16421160 -->
<g id="edge11" class="edge">
<title>16422056&#45;&gt;16421160</title>
<path fill="none" stroke="#484848" d="M242.8876,-212.8303C237.0892,-201.4992 230.0522,-187.7479 223.751,-175.4343"/>
<polygon fill="#484848" stroke="#484848" points="226.7798,-173.6698 219.1086,-166.3621 220.5483,-176.8587 226.7798,-173.6698"/>
<text text-anchor="middle" x="244.5568" y="-187.2" font-family="Helvetica,sans-Serif" font-size="8.00" fill="#999999">9 (⇑6)</text>
</g>
<!-- 15490488 -->
<g id="node11" class="node">
<title>15490488</title>
<path fill="none" stroke="#000000" d="M264,-119.1C264,-119.1 294,-119.1 294,-119.1 300,-119.1 306,-125.1 306,-131.1 306,-131.1 306,-154.3 306,-154.3 306,-160.3 300,-166.3 294,-166.3 294,-166.3 264,-166.3 264,-166.3 258,-166.3 252,-160.3 252,-154.3 252,-154.3 252,-131.1 252,-131.1 252,-125.1 258,-119.1 264,-119.1"/>
<text text-anchor="middle" x="278.9165" y="-150.6" font-family="Helvetica,sans-Serif" font-size="13.00" fill="#000000">fibo(0)</text>
<polyline fill="none" stroke="#000000" points="252,-142.7 305.8329,-142.7 "/>
<text text-anchor="middle" x="278.9165" y="-127" font-family="Helvetica,sans-Serif" font-size="13.00" fill="#000000">ret: 0</text>
</g>
<!-- 16422056&#45;&gt;15490488 -->
<g id="edge12" class="edge">
<title>16422056&#45;&gt;15490488</title>
<path fill="none" stroke="#505050" d="M261.0562,-212.8303C263.8986,-201.7214 267.3361,-188.2862 270.4387,-176.1602"/>
<polygon fill="#505050" stroke="#505050" points="273.8576,-176.9176 272.9457,-166.3621 267.0761,-175.1824 273.8576,-176.9176"/>
<text text-anchor="middle" x="281.7804" y="-187.2" font-family="Helvetica,sans-Serif" font-size="8.00" fill="#999999">10 (⇑7)</text>
</g>
<!-- 15492408 -->
<g id="node13" class="node">
<title>15492408</title>
<path fill="none" stroke="#000000" d="M336,-212.9C336,-212.9 366,-212.9 366,-212.9 372,-212.9 378,-218.9 378,-224.9 378,-224.9 378,-248.1 378,-248.1 378,-254.1 372,-260.1 366,-260.1 366,-260.1 336,-260.1 336,-260.1 330,-260.1 324,-254.1 324,-248.1 324,-248.1 324,-224.9 324,-224.9 324,-218.9 330,-212.9 336,-212.9"/>
<text text-anchor="middle" x="350.9165" y="-244.4" font-family="Helvetica,sans-Serif" font-size="13.00" fill="#000000">fibo(2)</text>
<polyline fill="none" stroke="#000000" points="324,-236.5 377.8329,-236.5 "/>
<text text-anchor="middle" x="350.9165" y="-220.8" font-family="Helvetica,sans-Serif" font-size="13.00" fill="#000000">ret: 1</text>
</g>
<!-- 15496192&#45;&gt;15492408 -->
<g id="edge13" class="edge">
<title>15496192&#45;&gt;15492408</title>
<path fill="none" stroke="#606060" d="M397.374,-306.5072C392.8955,-300.5952 388.194,-294.2246 383.992,-288.2 379.6787,-282.0158 375.2273,-275.2971 371.0442,-268.8127"/>
<polygon fill="#606060" stroke="#606060" points="373.8721,-266.7377 365.5444,-260.1879 367.97,-270.5013 373.8721,-266.7377"/>
<text text-anchor="middle" x="400.004" y="-281" font-family="Helvetica,sans-Serif" font-size="8.00" fill="#999999">12 (⇑12)</text>
</g>
<!-- 15491696 -->
<g id="node16" class="node">
<title>15491696</title>
<path fill="none" stroke="#000000" d="M408,-212.9C408,-212.9 438,-212.9 438,-212.9 444,-212.9 450,-218.9 450,-224.9 450,-224.9 450,-248.1 450,-248.1 450,-254.1 444,-260.1 438,-260.1 438,-260.1 408,-260.1 408,-260.1 402,-260.1 396,-254.1 396,-248.1 396,-248.1 396,-224.9 396,-224.9 396,-218.9 402,-212.9 408,-212.9"/>
<text text-anchor="middle" x="422.9165" y="-244.4" font-family="Helvetica,sans-Serif" font-size="13.00" fill="#000000">fibo(1)</text>
<polyline fill="none" stroke="#000000" points="396,-236.5 449.8329,-236.5 "/>
<text text-anchor="middle" x="422.9165" y="-220.8" font-family="Helvetica,sans-Serif" font-size="13.00" fill="#000000">ret: 1</text>
</g>
<!-- 15496192&#45;&gt;15491696 -->
<g id="edge14" class="edge">
<title>15496192&#45;&gt;15491696</title>
<path fill="none" stroke="#787878" d="M417.7664,-306.6303C418.5871,-295.6325 419.578,-282.3547 420.4758,-270.3244"/>
<polygon fill="#787878" stroke="#787878" points="423.9802,-270.3949 421.2342,-260.1621 416.9996,-269.8739 423.9802,-270.3949"/>
<text text-anchor="middle" x="436.004" y="-281" font-family="Helvetica,sans-Serif" font-size="8.00" fill="#999999">15 (⇑13)</text>
</g>
<!-- 15494368 -->
<g id="node14" class="node">
<title>15494368</title>
<path fill="none" stroke="#000000" d="M336,-119.1C336,-119.1 366,-119.1 366,-119.1 372,-119.1 378,-125.1 378,-131.1 378,-131.1 378,-154.3 378,-154.3 378,-160.3 372,-166.3 366,-166.3 366,-166.3 336,-166.3 336,-166.3 330,-166.3 324,-160.3 324,-154.3 324,-154.3 324,-131.1 324,-131.1 324,-125.1 330,-119.1 336,-119.1"/>
<text text-anchor="middle" x="350.9165" y="-150.6" font-family="Helvetica,sans-Serif" font-size="13.00" fill="#000000">fibo(1)</text>
<polyline fill="none" stroke="#000000" points="324,-142.7 377.8329,-142.7 "/>
<text text-anchor="middle" x="350.9165" y="-127" font-family="Helvetica,sans-Serif" font-size="13.00" fill="#000000">ret: 1</text>
</g>
<!-- 15492408&#45;&gt;15494368 -->
<g id="edge15" class="edge">
<title>15492408&#45;&gt;15494368</title>
<path fill="none" stroke="#686868" d="M351,-212.8303C351,-201.8325 351,-188.5547 351,-176.5244"/>
<polygon fill="#686868" stroke="#686868" points="354.5001,-176.3621 351,-166.3621 347.5001,-176.3622 354.5001,-176.3621"/>
<text text-anchor="middle" x="367.004" y="-187.2" font-family="Helvetica,sans-Serif" font-size="8.00" fill="#999999">13 (⇑10)</text>
</g>
<!-- 15499712 -->
<g id="node15" class="node">
<title>15499712</title>
<path fill="none" stroke="#000000" d="M408,-119.1C408,-119.1 438,-119.1 438,-119.1 444,-119.1 450,-125.1 450,-131.1 450,-131.1 450,-154.3 450,-154.3 450,-160.3 444,-166.3 438,-166.3 438,-166.3 408,-166.3 408,-166.3 402,-166.3 396,-160.3 396,-154.3 396,-154.3 396,-131.1 396,-131.1 396,-125.1 402,-119.1 408,-119.1"/>
<text text-anchor="middle" x="422.9165" y="-150.6" font-family="Helvetica,sans-Serif" font-size="13.00" fill="#000000">fibo(0)</text>
<polyline fill="none" stroke="#000000" points="396,-142.7 449.8329,-142.7 "/>
<text text-anchor="middle" x="422.9165" y="-127" font-family="Helvetica,sans-Serif" font-size="13.00" fill="#000000">ret: 0</text>
</g>
<!-- 15492408&#45;&gt;15499712 -->
<g id="edge16" class="edge">
<title>15492408&#45;&gt;15499712</title>
<path fill="none" stroke="#707070" d="M371.9803,-212.7969C377.0164,-206.8822 382.296,-200.4879 387,-194.4 391.7355,-188.2713 396.6056,-181.5774 401.1737,-175.0999"/>
<polygon fill="#707070" stroke="#707070" points="404.3366,-176.6821 407.1746,-166.4744 398.5904,-172.6844 404.3366,-176.6821"/>
<text text-anchor="middle" x="410.004" y="-187.2" font-family="Helvetica,sans-Serif" font-size="8.00" fill="#999999">14 (⇑11)</text>
</g>
<!-- 24261680 -->
<g id="node18" class="node">
<title>24261680</title>
<path fill="none" stroke="#000000" d="M500,-306.7C500,-306.7 530,-306.7 530,-306.7 536,-306.7 542,-312.7 542,-318.7 542,-318.7 542,-341.9 542,-341.9 542,-347.9 536,-353.9 530,-353.9 530,-353.9 500,-353.9 500,-353.9 494,-353.9 488,-347.9 488,-341.9 488,-341.9 488,-318.7 488,-318.7 488,-312.7 494,-306.7 500,-306.7"/>
<text text-anchor="middle" x="514.9164" y="-338.2" font-family="Helvetica,sans-Serif" font-size="13.00" fill="#000000">fibo(3)</text>
<polyline fill="none" stroke="#000000" points="488,-330.3 541.8329,-330.3 "/>
<text text-anchor="middle" x="514.9164" y="-314.6" font-family="Helvetica,sans-Serif" font-size="13.00" fill="#000000">ret: 2</text>
</g>
<!-- 24261144&#45;&gt;24261680 -->
<g id="edge17" class="edge">
<title>24261144&#45;&gt;24261680</title>
<path fill="none" stroke="#888888" d="M515,-400.4303C515,-389.4325 515,-376.1547 515,-364.1244"/>
<polygon fill="#888888" stroke="#888888" points="518.5001,-363.9621 515,-353.9621 511.5001,-363.9622 518.5001,-363.9621"/>
<text text-anchor="middle" x="531.004" y="-374.8" font-family="Helvetica,sans-Serif" font-size="8.00" fill="#999999">17 (⇑20)</text>
</g>
<!-- 24269696 -->
<g id="node23" class="node">
<title>24269696</title>
<path fill="none" stroke="#000000" d="M624,-306.7C624,-306.7 654,-306.7 654,-306.7 660,-306.7 666,-312.7 666,-318.7 666,-318.7 666,-341.9 666,-341.9 666,-347.9 660,-353.9 654,-353.9 654,-353.9 624,-353.9 624,-353.9 618,-353.9 612,-347.9 612,-341.9 612,-341.9 612,-318.7 612,-318.7 612,-312.7 618,-306.7 624,-306.7"/>
<text text-anchor="middle" x="638.9164" y="-338.2" font-family="Helvetica,sans-Serif" font-size="13.00" fill="#000000">fibo(2)</text>
<polyline fill="none" stroke="#000000" points="612,-330.3 665.8329,-330.3 "/>
<text text-anchor="middle" x="638.9164" y="-314.6" font-family="Helvetica,sans-Serif" font-size="13.00" fill="#000000">ret: 1</text>
</g>
<!-- 24261144&#45;&gt;24269696 -->
<g id="edge18" class="edge">
<title>24261144&#45;&gt;24269696</title>
<path fill="none" stroke="#b0b0b0" d="M542.2123,-403.5152C560.3026,-389.8307 584.2351,-371.727 603.7755,-356.9457"/>
<polygon fill="#b0b0b0" stroke="#b0b0b0" points="605.9874,-359.661 611.8512,-350.8368 601.7644,-354.0784 605.9874,-359.661"/>
<text text-anchor="middle" x="597.004" y="-374.8" font-family="Helvetica,sans-Serif" font-size="8.00" fill="#999999">22 (⇑23)</text>
</g>
<!-- 24263560 -->
<g id="node19" class="node">
<title>24263560</title>
<path fill="none" stroke="#000000" d="M480,-212.9C480,-212.9 510,-212.9 510,-212.9 516,-212.9 522,-218.9 522,-224.9 522,-224.9 522,-248.1 522,-248.1 522,-254.1 516,-260.1 510,-260.1 510,-260.1 480,-260.1 480,-260.1 474,-260.1 468,-254.1 468,-248.1 468,-248.1 468,-224.9 468,-224.9 468,-218.9 474,-212.9 480,-212.9"/>
<text text-anchor="middle" x="494.9165" y="-244.4" font-family="Helvetica,sans-Serif" font-size="13.00" fill="#000000">fibo(2)</text>
<polyline fill="none" stroke="#000000" points="468,-236.5 521.8329,-236.5 "/>
<text text-anchor="middle" x="494.9165" y="-220.8" font-family="Helvetica,sans-Serif" font-size="13.00" fill="#000000">ret: 1</text>
</g>
<!-- 24261680&#45;&gt;24263560 -->
<g id="edge19" class="edge">
<title>24261680&#45;&gt;24263560</title>
<path fill="none" stroke="#909090" d="M509.9532,-306.6303C507.5845,-295.5214 504.7199,-282.0862 502.1344,-269.9602"/>
<polygon fill="#909090" stroke="#909090" points="505.5537,-269.2124 500.0452,-260.1621 498.7076,-270.6722 505.5537,-269.2124"/>
<text text-anchor="middle" x="522.004" y="-281" font-family="Helvetica,sans-Serif" font-size="8.00" fill="#999999">18 (⇑18)</text>
</g>
<!-- 15497776 -->
<g id="node22" class="node">
<title>15497776</title>
<path fill="none" stroke="#000000" d="M552,-212.9C552,-212.9 582,-212.9 582,-212.9 588,-212.9 594,-218.9 594,-224.9 594,-224.9 594,-248.1 594,-248.1 594,-254.1 588,-260.1 582,-260.1 582,-260.1 552,-260.1 552,-260.1 546,-260.1 540,-254.1 540,-248.1 540,-248.1 540,-224.9 540,-224.9 540,-218.9 546,-212.9 552,-212.9"/>
<text text-anchor="middle" x="566.9164" y="-244.4" font-family="Helvetica,sans-Serif" font-size="13.00" fill="#000000">fibo(1)</text>
<polyline fill="none" stroke="#000000" points="540,-236.5 593.8329,-236.5 "/>
<text text-anchor="middle" x="566.9164" y="-220.8" font-family="Helvetica,sans-Serif" font-size="13.00" fill="#000000">ret: 1</text>
</g>
<!-- 24261680&#45;&gt;15497776 -->
<g id="edge20" class="edge">
<title>24261680&#45;&gt;15497776</title>
<path fill="none" stroke="#a8a8a8" d="M530.9265,-306.5591C534.6978,-300.6456 538.6069,-294.2613 542,-288.2 545.3702,-282.1796 548.7452,-275.6361 551.8761,-269.2923"/>
<polygon fill="#a8a8a8" stroke="#a8a8a8" points="555.0582,-270.7514 556.2596,-260.2249 548.756,-267.7047 555.0582,-270.7514"/>
<text text-anchor="middle" x="563.004" y="-281" font-family="Helvetica,sans-Serif" font-size="8.00" fill="#999999">21 (⇑19)</text>
</g>
<!-- 24267000 -->
<g id="node20" class="node">
<title>24267000</title>
<path fill="none" stroke="#000000" d="M480,-119.1C480,-119.1 510,-119.1 510,-119.1 516,-119.1 522,-125.1 522,-131.1 522,-131.1 522,-154.3 522,-154.3 522,-160.3 516,-166.3 510,-166.3 510,-166.3 480,-166.3 480,-166.3 474,-166.3 468,-160.3 468,-154.3 468,-154.3 468,-131.1 468,-131.1 468,-125.1 474,-119.1 480,-119.1"/>
<text text-anchor="middle" x="494.9165" y="-150.6" font-family="Helvetica,sans-Serif" font-size="13.00" fill="#000000">fibo(1)</text>
<polyline fill="none" stroke="#000000" points="468,-142.7 521.8329,-142.7 "/>
<text text-anchor="middle" x="494.9165" y="-127" font-family="Helvetica,sans-Serif" font-size="13.00" fill="#000000">ret: 1</text>
</g>
<!-- 24263560&#45;&gt;24267000 -->
<g id="edge21" class="edge">
<title>24263560&#45;&gt;24267000</title>
<path fill="none" stroke="#989898" d="M495,-212.8303C495,-201.8325 495,-188.5547 495,-176.5244"/>
<polygon fill="#989898" stroke="#989898" points="498.5001,-176.3621 495,-166.3621 491.5001,-176.3622 498.5001,-176.3621"/>
<text text-anchor="middle" x="511.004" y="-187.2" font-family="Helvetica,sans-Serif" font-size="8.00" fill="#999999">19 (⇑16)</text>
</g>
<!-- 24262888 -->
<g id="node21" class="node">
<title>24262888</title>
<path fill="none" stroke="#000000" d="M552,-119.1C552,-119.1 582,-119.1 582,-119.1 588,-119.1 594,-125.1 594,-131.1 594,-131.1 594,-154.3 594,-154.3 594,-160.3 588,-166.3 582,-166.3 582,-166.3 552,-166.3 552,-166.3 546,-166.3 540,-160.3 540,-154.3 540,-154.3 540,-131.1 540,-131.1 540,-125.1 546,-119.1 552,-119.1"/>
<text text-anchor="middle" x="566.9164" y="-150.6" font-family="Helvetica,sans-Serif" font-size="13.00" fill="#000000">fibo(0)</text>
<polyline fill="none" stroke="#000000" points="540,-142.7 593.8329,-142.7 "/>
<text text-anchor="middle" x="566.9164" y="-127" font-family="Helvetica,sans-Serif" font-size="13.00" fill="#000000">ret: 0</text>
</g>
<!-- 24263560&#45;&gt;24262888 -->
<g id="edge22" class="edge">
<title>24263560&#45;&gt;24262888</title>
<path fill="none" stroke="#a0a0a0" d="M515.9803,-212.7969C521.0164,-206.8822 526.296,-200.4879 531,-194.4 535.7355,-188.2713 540.6056,-181.5774 545.1737,-175.0999"/>
<polygon fill="#a0a0a0" stroke="#a0a0a0" points="548.3366,-176.6821 551.1746,-166.4744 542.5904,-172.6844 548.3366,-176.6821"/>
<text text-anchor="middle" x="554.004" y="-187.2" font-family="Helvetica,sans-Serif" font-size="8.00" fill="#999999">20 (⇑17)</text>
</g>
<!-- 12338440 -->
<g id="node24" class="node">
<title>12338440</title>
<path fill="none" stroke="#000000" d="M624,-212.9C624,-212.9 654,-212.9 654,-212.9 660,-212.9 666,-218.9 666,-224.9 666,-224.9 666,-248.1 666,-248.1 666,-254.1 660,-260.1 654,-260.1 654,-260.1 624,-260.1 624,-260.1 618,-260.1 612,-254.1 612,-248.1 612,-248.1 612,-224.9 612,-224.9 612,-218.9 618,-212.9 624,-212.9"/>
<text text-anchor="middle" x="638.9164" y="-244.4" font-family="Helvetica,sans-Serif" font-size="13.00" fill="#000000">fibo(1)</text>
<polyline fill="none" stroke="#000000" points="612,-236.5 665.8329,-236.5 "/>
<text text-anchor="middle" x="638.9164" y="-220.8" font-family="Helvetica,sans-Serif" font-size="13.00" fill="#000000">ret: 1</text>
</g>
<!-- 24269696&#45;&gt;12338440 -->
<g id="edge23" class="edge">
<title>24269696&#45;&gt;12338440</title>
<path fill="none" stroke="#b8b8b8" d="M639,-306.6303C639,-295.6325 639,-282.3547 639,-270.3244"/>
<polygon fill="#b8b8b8" stroke="#b8b8b8" points="642.5001,-270.1621 639,-260.1621 635.5001,-270.1622 642.5001,-270.1621"/>
<text text-anchor="middle" x="655.004" y="-281" font-family="Helvetica,sans-Serif" font-size="8.00" fill="#999999">23 (⇑21)</text>
</g>
<!-- 12338976 -->
<g id="node25" class="node">
<title>12338976</title>
<path fill="none" stroke="#000000" d="M696,-212.9C696,-212.9 726,-212.9 726,-212.9 732,-212.9 738,-218.9 738,-224.9 738,-224.9 738,-248.1 738,-248.1 738,-254.1 732,-260.1 726,-260.1 726,-260.1 696,-260.1 696,-260.1 690,-260.1 684,-254.1 684,-248.1 684,-248.1 684,-224.9 684,-224.9 684,-218.9 690,-212.9 696,-212.9"/>
<text text-anchor="middle" x="710.9164" y="-244.4" font-family="Helvetica,sans-Serif" font-size="13.00" fill="#000000">fibo(0)</text>
<polyline fill="none" stroke="#000000" points="684,-236.5 737.8329,-236.5 "/>
<text text-anchor="middle" x="710.9164" y="-220.8" font-family="Helvetica,sans-Serif" font-size="13.00" fill="#000000">ret: 0</text>
</g>
<!-- 24269696&#45;&gt;12338976 -->
<g id="edge24" class="edge">
<title>24269696&#45;&gt;12338976</title>
<path fill="none" stroke="#c0c0c0" d="M659.9803,-306.5969C665.0164,-300.6822 670.296,-294.2879 675,-288.2 679.7355,-282.0713 684.6056,-275.3774 689.1737,-268.8999"/>
<polygon fill="#c0c0c0" stroke="#c0c0c0" points="692.3366,-270.4821 695.1746,-260.2744 686.5904,-266.4844 692.3366,-270.4821"/>
<text text-anchor="middle" x="697.004" y="-281" font-family="Helvetica,sans-Serif" font-size="8.00" fill="#999999">24 (⇑22)</text>
</g>
</g>
</svg>
